<svg width="241" height="111" viewBox="0 0 241 111" fill="none" xmlns="http://www.w3.org/2000/svg">
<path d="M17.9441 110.7C15.0108 110.7 12.2441 110.3 9.64414 109.5C7.04414 108.767 4.94414 107.5 3.34414 105.7C1.74414 103.9 0.944139 101.467 0.944139 98.4C0.944139 97.3333 1.04414 96.2667 1.24414 95.2C1.24414 94.8 1.47747 94.6 1.94414 94.6C2.34414 94.6 2.54414 94.7667 2.54414 95.1C2.54414 95.5 2.54414 95.8667 2.54414 96.2C2.47747 96.5333 2.44414 96.9 2.44414 97.3C2.44414 100.1 3.27747 102.4 4.94414 104.2C6.54414 106 8.64414 107.333 11.2441 108.2C13.8441 109.067 16.5775 109.5 19.4441 109.5C22.6441 109.5 25.7441 109.033 28.7441 108.1C32.7441 106.833 36.5108 104.833 40.0441 102.1C43.6441 99.4333 46.9775 96.3667 50.0441 92.9C45.4441 88.9667 41.9775 84.1333 39.6441 78.4C37.3775 72.6 36.2441 66.4667 36.2441 60C36.2441 54.4667 37.0775 48.9 38.7441 43.3C40.4775 37.6333 43.0108 32.2667 46.3441 27.2C49.7441 22.1333 53.9441 17.6333 58.9441 13.7C64.0108 9.7 69.8775 6.56666 76.5441 4.3C83.2108 1.96666 90.7108 0.799996 99.0441 0.799996C106.044 0.799996 111.677 1.66666 115.944 3.4C120.211 5.06666 123.311 7.26666 125.244 10C127.244 12.7333 128.244 15.7333 128.244 19C128.244 23.0667 126.877 27.2 124.144 31.4C121.411 35.5333 117.777 39.0333 113.244 41.9C116.577 43.8333 119.044 46.3333 120.644 49.4C122.244 52.4 123.044 55.5667 123.044 58.9C123.044 62.3667 122.211 65.8333 120.544 69.3C118.944 72.7 116.511 75.8333 113.244 78.7C110.044 81.5 106.077 83.7667 101.344 85.5C96.6108 87.2333 91.1775 88.1 85.0441 88.1C80.7775 88.1 77.0441 87.6 73.8441 86.6C70.7108 85.6 68.0775 84.2667 65.9441 82.6C62.7441 87 59.2108 91.0333 55.3441 94.7C58.0775 96.5667 61.2108 98.0333 64.7441 99.1C68.3441 100.167 72.2775 100.7 76.5441 100.7C77.0775 100.7 77.5775 100.7 78.0441 100.7C78.5775 100.7 79.1108 100.667 79.6441 100.6C79.9775 100.6 80.1441 100.767 80.1441 101.1C80.2108 101.433 80.0775 101.6 79.7441 101.6C79.2108 101.667 78.6441 101.7 78.0441 101.7C77.4441 101.7 76.8775 101.7 76.3441 101.7C71.8775 101.7 67.7775 101.167 64.0441 100.1C60.3775 99.1 57.0441 97.6667 54.0441 95.8C50.0441 99.4667 45.7108 102.533 41.0441 105C36.3775 107.467 31.3775 109.133 26.0441 110C24.7775 110.2 23.4441 110.367 22.0441 110.5C20.6441 110.633 19.2775 110.7 17.9441 110.7ZM51.2441 91.4C53.1108 89.2 54.8775 86.9 56.5441 84.5C58.2108 82.1667 59.8108 79.7667 61.3441 77.3C60.4108 75.6333 59.7108 73.9333 59.2441 72.2C58.8441 70.4 58.6441 68.6 58.6441 66.8C58.6441 62.8 59.5775 59.0333 61.4441 55.5C63.3108 51.9 65.7441 49.3 68.7441 47.7C68.8108 47.6333 68.9108 47.6 69.0441 47.6C69.2441 47.6 69.3775 47.7333 69.4441 48C69.5775 48.2 69.5108 48.3667 69.2441 48.5C66.3775 50.0333 64.0441 52.5 62.2441 55.9C60.5108 59.2333 59.6441 62.7667 59.6441 66.5C59.6441 68.1667 59.8108 69.8333 60.1441 71.5C60.5441 73.1 61.1775 74.6667 62.0441 76.2C64.5775 72.0667 66.9441 67.9667 69.1441 63.9C71.3441 59.8333 73.3441 56.1667 75.1441 52.9C79.8775 44.3667 84.4441 37 88.8441 30.8C93.2441 24.5333 97.4775 19.7 101.544 16.3C105.677 12.8333 109.577 11.1 113.244 11.1C114.377 11.1 115.344 11.2333 116.144 11.5C116.344 11.5667 116.444 11.7333 116.444 12C116.444 12.4 116.244 12.5667 115.844 12.5C115.244 12.3 114.611 12.2 113.944 12.2C111.544 12.2 108.944 13.3667 106.144 15.7C103.344 18.0333 100.477 21.2333 97.5441 25.3C94.6775 29.3667 91.8108 34.0667 88.9441 39.4C89.8775 38.8667 90.9108 38.4667 92.0441 38.2C93.2441 37.8667 94.5108 37.7 95.8441 37.7C98.5775 37.7 101.111 37.9333 103.444 38.4C105.777 38.8 107.877 39.3667 109.744 40.1C113.277 37.1667 116.144 33.7 118.344 29.7C120.544 25.6333 121.644 21.6667 121.644 17.8C121.644 14.8667 120.877 12.2 119.344 9.79999C117.877 7.4 115.477 5.46666 112.144 4C108.877 2.53333 104.511 1.8 99.0441 1.8C91.1108 1.8 83.9441 2.93333 77.5441 5.2C71.2108 7.46666 65.6441 10.5667 60.8441 14.5C56.1108 18.4333 52.1108 22.9333 48.8441 28C45.6441 33 43.2441 38.2667 41.6441 43.8C40.0441 49.3333 39.2441 54.8333 39.2441 60.3C39.2441 66.3667 40.2108 72.1333 42.1441 77.6C44.1441 83 47.1775 87.6 51.2441 91.4ZM93.8441 46.4C96.3108 46.4 98.7108 46 101.044 45.2C103.377 44.3333 105.577 43.1667 107.644 41.7C106.111 40.7667 104.344 40.0333 102.344 39.5C100.411 38.9667 98.2441 38.7 95.8441 38.7C94.1775 38.7 92.6108 38.9667 91.1441 39.5C89.7441 40.0333 88.6441 40.6667 87.8441 41.4L86.6441 43.7C86.7108 44.4333 87.3108 45.0667 88.4441 45.6C89.5775 46.1333 91.3775 46.4 93.8441 46.4ZM84.5441 87.1C89.6108 87.1 94.0775 86.2 97.9441 84.4C101.811 82.6667 105.077 80.3667 107.744 77.5C110.411 74.6333 112.411 71.5 113.744 68.1C115.144 64.6333 115.844 61.2 115.844 57.8C115.844 55.0667 115.377 52.4667 114.444 50C113.511 47.5333 112.077 45.4 110.144 43.6C107.744 44.8 105.144 45.7333 102.344 46.4C99.6108 47.0667 96.7775 47.4 93.8441 47.4C91.5775 47.4 89.8108 47.1667 88.5441 46.7C87.3441 46.2333 86.5108 45.6667 86.0441 45C85.0441 47 84.0441 49.0667 83.0441 51.2C82.0441 53.2667 81.0775 55.4 80.1441 57.6C78.2775 61.8 76.2108 65.9333 73.9441 70C71.7441 74.0667 69.2775 77.9667 66.5441 81.7C68.5441 83.3 71.0108 84.6 73.9441 85.6C76.9441 86.6 80.4775 87.1 84.5441 87.1ZM137.067 82.5C134.267 82.5 132.867 80.9333 132.867 77.8C132.867 76.6 133.1 75.1667 133.567 73.5C134.033 71.8333 134.767 70 135.767 68C136.3 66.8 137.033 65.3667 137.967 63.7C138.9 61.9667 139.733 60.2667 140.467 58.6C141.267 56.9333 141.667 55.6 141.667 54.6C141.667 53.6 141.133 53.1 140.067 53.1C139.6 53.1 139 53.2333 138.267 53.5C137.533 53.7 136.533 53.9667 135.267 54.3C134.733 55.6333 133.867 57.5 132.667 59.9C131.533 62.2333 130.267 64.6333 128.867 67.1C127.467 69.5667 126.133 71.7 124.867 73.5C124.867 73.5 124.833 73.5333 124.767 73.6C124.767 73.6 124.7 73.6 124.567 73.6C124.433 73.6 124.233 73.5667 123.967 73.5C123.767 73.3667 123.7 73.2667 123.767 73.2C124.833 71.6667 125.933 69.9 127.067 67.9C128.2 65.8333 129.267 63.8 130.267 61.8C131.333 59.8 132.2 58.1 132.867 56.7C133.6 55.2333 134 54.3667 134.067 54.1C133.067 53.7667 132.267 53 131.667 51.8C131.133 50.5333 130.867 49.2667 130.867 48C130.867 46.8667 131.133 45.9 131.667 45.1C132.2 44.3 133 43.9 134.067 43.9C134.867 43.9 135.4 44.3333 135.667 45.2C136 46 136.167 46.9667 136.167 48.1C136.167 49.5667 136 51.0333 135.667 52.5C135.667 52.5 136.033 52.4333 136.767 52.3C137.5 52.1667 138.367 52.0667 139.367 52C140.367 51.8667 141.233 51.8 141.967 51.8C144.167 51.8 145.267 52.8667 145.267 55C145.267 56.3333 144.9 58.0667 144.167 60.2C143.433 62.2667 142.5 64.6667 141.367 67.4C139.1 72.8 137.967 76.6 137.967 78.8C137.967 80.1333 138.4 80.8 139.267 80.8C140.333 80.8 141.833 79.9333 143.767 78.2C145.7 76.4667 147.467 74.3 149.067 71.7C150.733 69.0333 152.767 65.4667 155.167 61C155.233 60.8667 155.333 60.8 155.467 60.8C155.667 60.8 155.833 60.9 155.967 61.1C156.167 61.2333 156.233 61.3667 156.167 61.5C152.5 68.4333 149.3 73.6667 146.567 77.2C143.833 80.7333 140.667 82.5 137.067 82.5ZM159.281 82.5C156.681 82.5 155.381 81.1 155.381 78.3C155.381 75.9667 156.414 72.5667 158.481 68.1C159.081 66.9 159.748 65.4667 160.481 63.8C161.281 62.1333 161.948 60.5333 162.481 59C163.081 57.4 163.381 56.1 163.381 55.1C163.381 54.1667 163.048 53.7 162.381 53.7C161.581 53.7 160.781 54.2 159.981 55.2C159.181 56.2 158.448 57.3333 157.781 58.6C157.181 59.8 156.681 60.7667 156.281 61.5C155.281 63.4333 154.148 65.5333 152.881 67.8C151.614 70.0667 150.348 72.0667 149.081 73.8H148.981C148.848 73.8 148.648 73.7333 148.381 73.6C148.181 73.4 148.114 73.2667 148.181 73.2C149.448 71.4667 150.681 69.4667 151.881 67.2C153.148 64.9333 154.214 62.8667 155.081 61C155.814 59.6 156.581 58.1667 157.381 56.7C158.248 55.1667 159.248 53.9 160.381 52.9C161.514 51.8333 162.814 51.3 164.281 51.3C166.748 51.3 167.981 52.2667 167.981 54.2C167.981 55.4667 167.581 57.1667 166.781 59.3C165.981 61.4333 164.914 64.1333 163.581 67.4C162.381 70.2 161.481 72.5667 160.881 74.5C160.348 76.3667 160.081 77.8333 160.081 78.9C160.081 80.1667 160.514 80.8 161.381 80.8C162.314 80.8 163.814 79.9333 165.881 78.2C167.681 76.6 169.414 74.6333 171.081 72.3C172.748 69.9 174.548 66.6667 176.481 62.6C177.014 61.5333 177.548 60.2 178.081 58.6C178.681 56.9333 179.181 55.4667 179.581 54.2C180.048 52.9333 180.281 52.3 180.281 52.3C181.414 52.0333 182.681 51.7 184.081 51.3C185.481 50.8333 186.714 50.3667 187.781 49.9C187.114 50.5667 186.148 52.0667 184.881 54.4C183.681 56.7333 182.414 59.4 181.081 62.4C179.814 65.3333 178.714 68.2 177.781 71C176.648 74.2 176.081 76.7667 176.081 78.7C176.081 80.3 176.581 81.1 177.581 81.1C178.048 81.1 178.614 80.9 179.281 80.5C180.014 80.1 180.881 79.4667 181.881 78.6C182.748 77.8667 183.548 77 184.281 76C185.081 75 185.848 73.9667 186.581 72.9C187.581 71.4333 188.614 69.7333 189.681 67.8C190.814 65.8667 192.048 63.6 193.381 61C193.514 60.8 193.614 60.7 193.681 60.7C193.881 60.7 194.048 60.8 194.181 61C194.381 61.1333 194.448 61.2667 194.381 61.4C190.781 68.4667 187.614 73.7667 184.881 77.3C182.148 80.7667 179.181 82.5 175.981 82.5C174.714 82.5 173.781 82.0667 173.181 81.2C172.648 80.3333 172.381 79.1667 172.381 77.7C172.381 76.5667 172.514 75.3 172.781 73.9C173.048 72.5 173.414 71.0667 173.881 69.6C171.414 73.8667 169.048 77.1 166.781 79.3C164.514 81.4333 162.014 82.5 159.281 82.5ZM197.864 83C194.998 83 192.964 82.0333 191.764 80.1C190.564 78.1 189.964 75.8333 189.964 73.3C189.964 71.7667 190.131 70.2667 190.464 68.8C190.798 67.3333 191.198 65.9667 191.664 64.7C192.398 62.9 193.364 61 194.564 59C195.831 56.9333 197.331 55.1667 199.064 53.7C200.864 52.2333 202.931 51.5 205.264 51.5C207.331 51.5 208.831 52.1 209.764 53.3C210.764 54.4333 211.264 55.8667 211.264 57.6C211.264 59.6667 210.798 61.2333 209.864 62.3C208.998 63.3667 208.198 63.9 207.464 63.9C206.531 63.9 206.064 63.3333 206.064 62.2C206.064 61.4667 206.298 60.6 206.764 59.6C207.631 57.7333 208.064 56.1667 208.064 54.9C208.064 53.3 207.331 52.5 205.864 52.5C204.598 52.5 203.364 53.2667 202.164 54.8C200.964 56.3333 199.898 58.1333 198.964 60.2C198.098 62.2667 197.364 64.1 196.764 65.7C196.098 67.5667 195.531 69.4 195.064 71.2C194.664 73 194.464 74.6333 194.464 76.1C194.464 77.6333 194.731 78.9 195.264 79.9C195.864 80.9 196.764 81.4 197.964 81.4C199.364 81.4 201.031 80.8 202.964 79.6C204.964 78.3333 207.098 76.2 209.364 73.2C211.698 70.2 214.064 66.1 216.464 60.9C216.464 60.8333 216.531 60.8 216.664 60.8C216.864 60.8 217.064 60.9 217.264 61.1C217.531 61.2333 217.598 61.3667 217.464 61.5C214.198 68.9 210.731 74.3333 207.064 77.8C203.464 81.2667 200.398 83 197.864 83ZM220.909 83C218.042 83 216.009 82.0333 214.809 80.1C213.609 78.1 213.009 75.8333 213.009 73.3C213.009 71.7667 213.176 70.2667 213.509 68.8C213.842 67.3333 214.242 65.9667 214.709 64.7C215.442 62.9 216.476 61 217.809 59C219.209 56.9333 220.876 55.1667 222.809 53.7C224.742 52.2333 226.842 51.5 229.109 51.5C230.976 51.5 232.276 52.0333 233.009 53.1C233.742 54.1 234.109 55.3667 234.109 56.9C234.109 57.1667 234.109 57.4333 234.109 57.7C234.109 57.9 234.076 58.1667 234.009 58.5C233.809 60.3 233.109 62.1667 231.909 64.1C230.709 66.0333 229.209 67.6667 227.409 69C225.609 70.2667 223.676 70.9 221.609 70.9C220.409 70.9 219.342 70.5667 218.409 69.9C217.809 72.1667 217.509 74.2333 217.509 76.1C217.509 77.6333 217.776 78.9 218.309 79.9C218.909 80.9 219.809 81.4 221.009 81.4C222.409 81.4 224.076 80.8 226.009 79.6C228.009 78.3333 230.142 76.2 232.409 73.2C234.742 70.2 237.109 66.1 239.509 60.9C239.509 60.8333 239.576 60.8 239.709 60.8C239.909 60.8 240.109 60.9 240.309 61.1C240.576 61.2333 240.642 61.3667 240.509 61.5C237.242 68.9 233.776 74.3333 230.109 77.8C226.509 81.2667 223.442 83 220.909 83ZM221.109 69.3C222.576 69.3 224.009 68.7667 225.409 67.7C226.809 66.5667 228.076 65.1667 229.209 63.5C230.342 61.7667 231.242 60.0333 231.909 58.3C232.176 57.5667 232.309 56.7333 232.309 55.8C232.309 54.9333 232.142 54.2 231.809 53.6C231.542 52.9333 231.042 52.6 230.309 52.6C229.109 52.6 227.809 53.3667 226.409 54.9C225.009 56.3667 223.709 58.1333 222.509 60.2C221.309 62.2 220.409 64.0333 219.809 65.7C219.609 66.1667 219.409 66.6667 219.209 67.2C219.076 67.6667 218.942 68.1667 218.809 68.7C219.609 69.1 220.376 69.3 221.109 69.3Z" fill="#BFAC00"/>
</svg>
