<svg width="323" height="108" viewBox="0 0 323 108" fill="none" xmlns="http://www.w3.org/2000/svg">
<path d="M17.4016 107.8C14.4016 107.8 11.6016 107.4 9.00156 106.6C6.40156 105.867 4.30156 104.6 2.70156 102.8C1.10156 101 0.301562 98.5667 0.301562 95.5C0.301562 94.4333 0.401562 93.3667 0.601562 92.3C0.734895 91.9 0.968228 91.7 1.30156 91.7C1.70156 91.7 1.90156 91.8667 1.90156 92.2C1.90156 92.5333 1.90156 92.8667 1.90156 93.2C1.83489 93.6 1.80156 93.9667 1.80156 94.3C1.80156 97.1667 2.6349 99.5 4.30156 101.3C5.90156 103.1 8.00156 104.433 10.6016 105.3C13.2016 106.167 15.9682 106.6 18.9016 106.6C22.1016 106.6 25.2016 106.133 28.2016 105.2C31.4016 104.2 34.4349 102.7 37.3016 100.7C40.2349 98.7667 43.0349 96.5 45.7016 93.9C40.9682 92.7 36.8682 90.6 33.4016 87.6C29.9349 84.6 27.2682 80.9667 25.4016 76.7C23.6016 72.4333 22.7016 67.9 22.7016 63.1C22.7016 58.7667 23.4349 54.5333 24.9016 50.4C26.7016 45.3333 29.3349 40.4333 32.8016 35.7C36.2682 30.9667 40.8682 26.6667 46.6016 22.8C52.3349 18.9333 59.4349 15.7667 67.9016 13.3C76.4349 10.8333 86.6016 9.33333 98.4016 8.8C99.8016 8.73333 101.468 8.69999 103.402 8.69999C105.402 8.69999 107.335 8.69999 109.202 8.69999C110.535 8.36666 111.702 8.19999 112.702 8.19999C113.768 8.19999 114.735 8.33333 115.602 8.6C115.802 8.66666 115.902 8.86666 115.902 9.2C115.968 9.26667 116.002 9.4 116.002 9.59999C116.002 10.0667 115.735 10.3 115.202 10.3C112.802 10.3667 110.868 11.2 109.402 12.8C107.935 14.4 106.468 16.4667 105.002 19C104.068 20.8 103.368 22.8667 102.902 25.2C102.435 27.5333 102.135 30.0667 102.002 32.8C103.868 34.3333 105.302 36.1 106.302 38.1C107.368 40.1 107.835 42.2667 107.702 44.6C107.702 45.0667 107.468 45.3 107.002 45.3C106.468 45.3 106.202 45.0333 106.202 44.5C106.335 42.5667 106.002 40.7667 105.202 39.1C104.468 37.3667 103.402 35.8 102.002 34.4C101.802 39.0667 101.635 44.0667 101.502 49.4C101.435 54.7333 100.702 59.9333 99.3016 65C101.102 64.8667 102.835 64.6667 104.502 64.4C106.902 60.4667 109.402 56.2333 112.002 51.7C114.602 47.1667 117.268 42.5333 120.002 37.8C122.735 33.0667 125.568 28.5 128.502 24.1C131.435 19.7 134.502 15.7 137.702 12.1C141.368 7.96666 145.035 4.96666 148.702 3.09999C152.368 1.23333 155.735 0.299995 158.802 0.299995C162.335 0.299995 165.235 1.46666 167.502 3.8C169.835 6.06666 171.002 9.16666 171.002 13.1C171.002 17.4333 169.302 22.5667 165.902 28.5C162.568 34.3667 156.835 40.6667 148.702 47.4C143.502 51.6667 137.535 55.2667 130.802 58.2C128.135 63.4 126.035 68.1333 124.502 72.4C123.035 76.6 122.302 80.0667 122.302 82.8C122.302 84.7333 122.702 86.2333 123.502 87.3C124.368 88.4333 125.668 89 127.402 89C129.468 89 131.768 88 134.302 86C136.902 84.0667 139.468 81.4333 142.002 78.1C144.535 74.7 146.768 70.9333 148.702 66.8C148.902 66.4667 149.135 66.3 149.402 66.3C149.868 66.3 150.002 66.5667 149.802 67.1C147.868 71.1 145.635 74.9667 143.102 78.7C140.635 82.4333 137.935 85.4667 135.002 87.8C132.068 90.2 128.968 91.4 125.702 91.4C122.302 91.4 119.935 90.3667 118.602 88.3C117.268 86.3 116.602 83.7667 116.602 80.7C116.602 77.8333 117.035 74.7333 117.902 71.4C118.768 68.0667 119.835 64.9333 121.102 62C118.835 62.7333 116.535 63.4 114.202 64C111.935 64.5333 109.635 65 107.302 65.4C104.368 69.4667 101.402 73.1333 98.4016 76.4C95.4016 79.6667 92.4682 82.2333 89.6016 84.1C86.8016 85.9667 84.1682 86.8333 81.7016 86.7C81.1682 86.7 80.9016 86.5 80.9016 86.1C80.9016 85.8333 81.0349 85.6 81.3016 85.4C84.1016 83.4667 86.3349 80.8667 88.0016 77.6C89.7349 74.2667 91.1016 70.6333 92.1016 66.7H89.5016C87.0349 66.7 84.5682 66.5 82.1016 66.1C79.6349 65.6333 77.2349 65.0667 74.9016 64.4C72.0349 69.8667 68.7682 75.0667 65.1016 80C61.4349 84.9333 57.4016 89.3667 53.0016 93.3C57.2016 93.2333 61.0682 92.2 64.6016 90.2C68.1349 88.2 70.4349 85.2333 71.5016 81.3C71.5682 80.9667 71.8016 80.8 72.2016 80.8C72.8016 80.8 73.0349 81.1 72.9016 81.7C72.0349 84.7667 70.5016 87.2667 68.3016 89.2C66.1016 91.2 63.5016 92.6333 60.5016 93.5C57.5682 94.4333 54.5349 94.8333 51.4016 94.7C47.6016 97.8333 43.5349 100.467 39.2016 102.6C34.9349 104.8 30.3349 106.3 25.4016 107.1C24.1349 107.3 22.8349 107.467 21.5016 107.6C20.1016 107.733 18.7349 107.8 17.4016 107.8ZM108.502 63.8C110.835 63.3333 113.102 62.8 115.302 62.2C117.568 61.5333 119.802 60.8333 122.002 60.1C124.202 55.5 126.735 50.9333 129.602 46.4C132.535 41.8667 135.502 37.5 138.502 33.3C141.568 29.1 144.435 25.2667 147.102 21.8C149.768 18.2667 151.935 15.3 153.602 12.9C153.935 12.5 154.235 12.3 154.502 12.3C154.968 12.3 155.202 12.5667 155.202 13.1C155.202 13.4333 155.102 13.7 154.902 13.9C152.702 16.7667 150.235 20.4667 147.502 25C144.768 29.4667 142.035 34.4 139.302 39.8C136.568 45.1333 134.068 50.5 131.802 55.9C134.268 54.6333 136.635 53.3 138.902 51.9C141.168 50.4333 143.335 48.8667 145.402 47.2C150.935 42.8 155.402 38.4333 158.802 34.1C162.268 29.7667 164.802 25.7 166.402 21.9C168.068 18.0333 168.902 14.7 168.902 11.9C168.902 9.43333 168.302 7.5 167.102 6.1C165.968 4.63333 164.335 3.9 162.202 3.9C159.935 3.9 157.235 4.76666 154.102 6.5C150.968 8.16666 147.435 10.9667 143.502 14.9C140.368 18.0333 137.268 21.6333 134.202 25.7C131.202 29.7667 128.235 34.0333 125.302 38.5C122.368 42.9 119.502 47.2667 116.702 51.6C113.902 55.9333 111.168 59.9667 108.502 63.7V63.8ZM46.9016 92.7C51.1016 88.3 54.9349 83.3667 58.4016 77.9C61.9349 72.4333 65.1349 67.1333 68.0016 62C63.8016 60.1333 60.4016 57.7667 57.8016 54.9C55.2016 51.9667 54.0349 48.5333 54.3016 44.6C54.6349 40.1333 56.0349 36.5333 58.5016 33.8C60.9682 31 64.0682 28.9333 67.8016 27.6C71.5349 26.2667 75.4682 25.6 79.6016 25.6C82.6682 25.6 85.8349 25.9667 89.1016 26.7C91.9682 22.7667 94.7349 19.4333 97.4016 16.7C100.135 13.9667 102.768 11.8667 105.302 10.4C104.635 10.4 103.935 10.4 103.202 10.4C102.535 10.3333 101.835 10.3 101.102 10.3C95.1016 10.3 89.0682 10.8 83.0016 11.8C76.9349 12.7333 71.0349 14.2 65.3016 16.2C59.5682 18.2 54.2016 20.8333 49.2016 24.1C44.2682 27.3 39.9349 31.1333 36.2016 35.6C32.4682 40.0667 29.5682 45.2667 27.5016 51.2C25.9682 55.6667 25.2016 59.9667 25.2016 64.1C25.2016 68.7 26.0349 73 27.7016 77C29.4349 81 31.9349 84.3667 35.2016 87.1C38.4682 89.8333 42.3682 91.7 46.9016 92.7ZM97.5016 29.7C97.8349 28.1667 98.2349 26.7 98.7016 25.3C99.2349 23.8333 99.8349 22.5 100.502 21.3C101.502 19.5667 102.902 17.6333 104.702 15.5C106.502 13.3 108.502 11.7333 110.702 10.8L108.802 10.6C106.402 11.8667 103.868 14.0333 101.202 17.1C98.6016 20.1 95.9682 23.7 93.3016 27.9C94.8349 28.3667 96.2349 28.9667 97.5016 29.7ZM69.0016 60.2L74.6016 50C76.9349 45.7333 79.2349 41.7333 81.5016 38C83.8349 34.2667 86.1016 30.8667 88.3016 27.8C87.1016 27.5333 85.9016 27.3667 84.7016 27.3C83.5016 27.1667 82.3016 27.1 81.1016 27.1C77.4349 27.1 73.9349 27.7 70.6016 28.9C67.2682 30.1 64.5016 32 62.3016 34.6C60.1682 37.1333 58.9349 40.4667 58.6016 44.6C58.4016 48 59.2349 51.0333 61.1016 53.7C63.0349 56.3 65.6682 58.4667 69.0016 60.2ZM89.5016 65.2H92.4016C93.5349 60.2667 94.3016 55.2333 94.7016 50.1C95.1016 44.9 95.6349 40.3333 96.3016 36.4L97.2016 30.9C96.5349 30.5667 95.8016 30.2333 95.0016 29.9C94.2682 29.5 93.5016 29.1667 92.7016 28.9C90.4349 32.5667 88.2016 36.6 86.0016 41C83.8682 45.4 81.7016 49.9667 79.5016 54.7L75.7016 62.9C77.7682 63.5 79.9682 64.0333 82.3016 64.5C84.6349 64.9667 87.0349 65.2 89.5016 65.2ZM89.0016 82C91.3349 81.2 93.7016 79.3667 96.1016 76.5C98.5016 73.5667 101.002 70.0667 103.602 66C102.802 66.0667 102.002 66.1667 101.202 66.3C100.402 66.3667 99.6016 66.4333 98.8016 66.5C97.9349 69.3667 96.7016 72.1 95.1016 74.7C93.5682 77.3 91.5349 79.7333 89.0016 82ZM154.005 87C151.138 87 149.105 86.0333 147.905 84.1C146.705 82.1 146.105 79.8333 146.105 77.3C146.105 75.7667 146.271 74.2667 146.605 72.8C146.938 71.3333 147.338 69.9667 147.805 68.7C148.538 66.9 149.571 65 150.905 63C152.305 60.9333 153.971 59.1667 155.905 57.7C157.838 56.2333 159.938 55.5 162.205 55.5C164.071 55.5 165.371 56.0333 166.105 57.1C166.838 58.1 167.205 59.3667 167.205 60.9C167.205 61.1667 167.205 61.4333 167.205 61.7C167.205 61.9 167.171 62.1667 167.105 62.5C166.905 64.3 166.205 66.1667 165.005 68.1C163.805 70.0333 162.305 71.6667 160.505 73C158.705 74.2667 156.771 74.9 154.705 74.9C153.505 74.9 152.438 74.5667 151.505 73.9C150.905 76.1667 150.605 78.2333 150.605 80.1C150.605 81.6333 150.871 82.9 151.405 83.9C152.005 84.9 152.905 85.4 154.105 85.4C155.505 85.4 157.171 84.8 159.105 83.6C161.105 82.3333 163.238 80.2 165.505 77.2C167.838 74.2 170.205 70.1 172.605 64.9C172.605 64.8333 172.671 64.8 172.805 64.8C173.005 64.8 173.205 64.9 173.405 65.1C173.671 65.2333 173.738 65.3667 173.605 65.5C170.338 72.9 166.871 78.3333 163.205 81.8C159.605 85.2667 156.538 87 154.005 87ZM154.205 73.3C155.671 73.3 157.105 72.7667 158.505 71.7C159.905 70.5667 161.171 69.1667 162.305 67.5C163.438 65.7667 164.338 64.0333 165.005 62.3C165.271 61.5667 165.405 60.7333 165.405 59.8C165.405 58.9333 165.238 58.2 164.905 57.6C164.638 56.9333 164.138 56.6 163.405 56.6C162.205 56.6 160.905 57.3667 159.505 58.9C158.105 60.3667 156.805 62.1333 155.605 64.2C154.405 66.2 153.505 68.0333 152.905 69.7C152.705 70.1667 152.505 70.6667 152.305 71.2C152.171 71.6667 152.038 72.1667 151.905 72.7C152.705 73.1 153.471 73.3 154.205 73.3ZM178.952 86.5C176.152 86.5 174.752 84.9333 174.752 81.8C174.752 80.6 174.985 79.1667 175.452 77.5C175.918 75.8333 176.652 74 177.652 72C178.185 70.8 178.918 69.3667 179.852 67.7C180.785 65.9667 181.618 64.2667 182.352 62.6C183.152 60.9333 183.552 59.6 183.552 58.6C183.552 57.6 183.018 57.1 181.952 57.1C181.485 57.1 180.885 57.2333 180.152 57.5C179.418 57.7 178.418 57.9667 177.152 58.3C176.618 59.6333 175.752 61.5 174.552 63.9C173.418 66.2333 172.152 68.6333 170.752 71.1C169.352 73.5667 168.018 75.7 166.752 77.5C166.752 77.5 166.718 77.5333 166.652 77.6C166.652 77.6 166.585 77.6 166.452 77.6C166.318 77.6 166.118 77.5667 165.852 77.5C165.652 77.3667 165.585 77.2667 165.652 77.2C166.718 75.6667 167.818 73.9 168.952 71.9C170.085 69.8333 171.152 67.8 172.152 65.8C173.218 63.8 174.085 62.1 174.752 60.7C175.485 59.2333 175.885 58.3667 175.952 58.1C174.952 57.7667 174.152 57 173.552 55.8C173.018 54.5333 172.752 53.2667 172.752 52C172.752 50.8667 173.018 49.9 173.552 49.1C174.085 48.3 174.885 47.9 175.952 47.9C176.752 47.9 177.285 48.3333 177.552 49.2C177.885 50 178.052 50.9667 178.052 52.1C178.052 53.5667 177.885 55.0333 177.552 56.5C177.552 56.5 177.918 56.4333 178.652 56.3C179.385 56.1667 180.252 56.0667 181.252 56C182.252 55.8667 183.118 55.8 183.852 55.8C186.052 55.8 187.152 56.8667 187.152 59C187.152 60.3333 186.785 62.0667 186.052 64.2C185.318 66.2667 184.385 68.6667 183.252 71.4C180.985 76.8 179.852 80.6 179.852 82.8C179.852 84.1333 180.285 84.8 181.152 84.8C182.218 84.8 183.718 83.9333 185.652 82.2C187.585 80.4667 189.352 78.3 190.952 75.7C192.618 73.0333 194.652 69.4667 197.052 65C197.118 64.8667 197.218 64.8 197.352 64.8C197.552 64.8 197.718 64.9 197.852 65.1C198.052 65.2333 198.118 65.3667 198.052 65.5C194.385 72.4333 191.185 77.6667 188.452 81.2C185.718 84.7333 182.552 86.5 178.952 86.5ZM201.466 87C198.599 87 196.566 86.0333 195.366 84.1C194.166 82.1 193.566 79.8333 193.566 77.3C193.566 75.7667 193.732 74.2667 194.066 72.8C194.399 71.3333 194.799 69.9667 195.266 68.7C195.999 66.9 197.032 65 198.366 63C199.766 60.9333 201.432 59.1667 203.366 57.7C205.299 56.2333 207.399 55.5 209.666 55.5C211.532 55.5 212.832 56.0333 213.566 57.1C214.299 58.1 214.666 59.3667 214.666 60.9C214.666 61.1667 214.666 61.4333 214.666 61.7C214.666 61.9 214.632 62.1667 214.566 62.5C214.366 64.3 213.666 66.1667 212.466 68.1C211.266 70.0333 209.766 71.6667 207.966 73C206.166 74.2667 204.232 74.9 202.166 74.9C200.966 74.9 199.899 74.5667 198.966 73.9C198.366 76.1667 198.066 78.2333 198.066 80.1C198.066 81.6333 198.332 82.9 198.866 83.9C199.466 84.9 200.366 85.4 201.566 85.4C202.966 85.4 204.632 84.8 206.566 83.6C208.566 82.3333 210.699 80.2 212.966 77.2C215.299 74.2 217.666 70.1 220.066 64.9C220.066 64.8333 220.132 64.8 220.266 64.8C220.466 64.8 220.666 64.9 220.866 65.1C221.132 65.2333 221.199 65.3667 221.066 65.5C217.799 72.9 214.332 78.3333 210.666 81.8C207.066 85.2667 203.999 87 201.466 87ZM201.666 73.3C203.132 73.3 204.566 72.7667 205.966 71.7C207.366 70.5667 208.632 69.1667 209.766 67.5C210.899 65.7667 211.799 64.0333 212.466 62.3C212.732 61.5667 212.866 60.7333 212.866 59.8C212.866 58.9333 212.699 58.2 212.366 57.6C212.099 56.9333 211.599 56.6 210.866 56.6C209.666 56.6 208.366 57.3667 206.966 58.9C205.566 60.3667 204.266 62.1333 203.066 64.2C201.866 66.2 200.966 68.0333 200.366 69.7C200.166 70.1667 199.966 70.6667 199.766 71.2C199.632 71.6667 199.499 72.1667 199.366 72.7C200.166 73.1 200.932 73.3 201.666 73.3ZM220.713 86.5C218.513 86.5 216.979 85.8667 216.113 84.6C215.313 83.3333 214.913 81.8 214.913 80C214.913 78.0667 215.213 76.0333 215.813 73.9C216.479 71.7667 217.146 70.0333 217.813 68.7C220.146 63.8333 223.413 60.2333 227.613 57.9C231.879 55.5667 236.246 54.5667 240.713 54.9C242.246 51.7667 243.846 48.5 245.513 45.1C247.246 41.6333 248.846 38.3667 250.313 35.3C251.846 32.1667 253.146 29.5 254.213 27.3C255.346 25.0333 256.079 23.5333 256.413 22.8C257.546 22.5333 258.779 22.2333 260.113 21.9C261.446 21.5 262.646 21.0667 263.713 20.6C263.046 21.7333 261.979 23.5 260.513 25.9C259.113 28.3 257.479 31.1333 255.613 34.4C253.813 37.6 251.913 41.0333 249.913 44.7C247.913 48.3667 245.979 52.0667 244.113 55.8V56C244.113 56.2667 243.946 56.5 243.613 56.7C241.946 60.1 240.413 63.3667 239.012 66.5C237.679 69.6333 236.579 72.5 235.713 75.1C234.913 77.6333 234.513 79.7333 234.513 81.4C234.513 83.2667 235.146 84.2 236.413 84.2C237.146 84.2 237.979 83.9 238.913 83.3C239.846 82.7 240.746 81.9667 241.613 81.1C243.746 78.9667 245.579 76.5667 247.113 73.9C248.713 71.2333 250.213 68.5667 251.613 65.9C251.613 65.7667 251.679 65.7 251.813 65.7C252.279 65.7 252.513 65.9667 252.513 66.5C252.513 66.5 252.346 66.8 252.013 67.4C251.679 68 251.479 68.3333 251.413 68.4C250.213 70.7333 248.979 72.9667 247.713 75.1C246.446 77.2333 244.913 79.2667 243.113 81.2C242.113 82.2667 240.813 83.4 239.213 84.6C237.679 85.8 236.146 86.4 234.613 86.4C233.079 86.4 232.013 85.8 231.413 84.6C230.879 83.4 230.613 82.0667 230.613 80.6C230.613 79.6667 230.679 78.7667 230.813 77.9C230.946 77.0333 231.113 76.2667 231.313 75.6C230.846 76.8 230.013 78.2667 228.813 80C227.679 81.7333 226.379 83.2667 224.913 84.6C223.513 85.8667 222.113 86.5 220.713 86.5ZM221.913 85C222.846 85 223.879 84.3667 225.013 83.1C226.213 81.8333 227.379 80.3 228.513 78.5C229.713 76.6333 230.779 74.8333 231.713 73.1C232.646 71.3 233.346 69.9333 233.813 69L240.113 56.2C236.846 56.2667 233.913 57.1667 231.313 58.9C228.779 60.6333 226.613 62.8333 224.813 65.5C223.013 68.1 221.646 70.7667 220.713 73.5C219.779 76.2333 219.313 78.6 219.313 80.6C219.313 81.9333 219.513 83 219.912 83.8C220.379 84.6 221.046 85 221.913 85ZM267.146 49C266.213 49 265.413 48.7 264.746 48.1C264.146 47.4333 263.846 46.6667 263.846 45.8C263.846 44.6667 264.213 43.7 264.946 42.9C265.746 42.1 266.679 41.7 267.746 41.7C268.679 41.7 269.479 42.0333 270.146 42.7C270.813 43.3667 271.146 44.2 271.146 45.2C271.146 46.2667 270.746 47.1667 269.946 47.9C269.146 48.6333 268.213 49 267.146 49ZM256.146 86.5C254.946 86.5 253.979 86.0667 253.246 85.2C252.579 84.2667 252.246 83.0667 252.246 81.6C252.246 79.7333 252.613 77.7333 253.346 75.6C254.146 73.4667 255.046 71.3333 256.046 69.2C257.113 67 258.046 64.9333 258.846 63C259.179 62.0667 259.479 61.2333 259.746 60.5C260.013 59.7667 260.146 59.1667 260.146 58.7C260.146 58.0333 259.846 57.7 259.246 57.7C258.446 57.7 257.646 58.2 256.846 59.2C256.046 60.2 255.313 61.3333 254.646 62.6C254.046 63.8 253.546 64.7667 253.146 65.5C252.146 67.4333 251.046 69.4333 249.846 71.5C248.713 73.5667 247.546 75.4667 246.346 77.2C246.346 77.2667 246.279 77.3 246.146 77.3C246.013 77.3 245.846 77.2 245.646 77C245.446 76.8 245.379 76.6667 245.446 76.6C246.713 74.8 247.879 72.9 248.946 70.9C250.079 68.8333 251.113 66.8667 252.046 65C252.713 63.6 253.446 62.1667 254.246 60.7C255.113 59.1667 256.113 57.9 257.246 56.9C258.379 55.8333 259.679 55.3 261.146 55.3C261.813 55.3 262.579 55.4667 263.446 55.8C264.446 56.2 264.946 57.0667 264.946 58.4C264.946 59.0667 264.813 59.8667 264.546 60.8C264.346 61.6667 264.046 62.6667 263.646 63.8C262.779 66.0667 261.813 68.3667 260.746 70.7C259.746 72.9667 258.813 75.2667 257.946 77.6C257.279 79.4 256.946 81 256.946 82.4C256.946 83.9333 257.446 84.7 258.446 84.7C259.379 84.7 260.813 83.8667 262.746 82.2C264.679 80.4667 266.479 78.3 268.146 75.7C269.813 73.0333 271.813 69.4667 274.146 65C274.213 64.8667 274.346 64.8 274.546 64.8C274.679 64.8 274.813 64.9 274.946 65.1C275.146 65.2333 275.213 65.3667 275.146 65.5C271.613 72.3667 268.446 77.6 265.646 81.2C262.846 84.7333 259.679 86.5 256.146 86.5ZM273.116 86.4C271.583 86.4 270.483 85.8333 269.816 84.7C269.15 83.5667 268.816 82.2333 268.816 80.7C268.816 78.6333 269.25 76.5667 270.116 74.5C271.516 70.8333 272.816 67.6667 274.016 65C275.283 62.3333 276.55 59.7667 277.816 57.3H275.116C274.85 57.3 274.716 57.1667 274.716 56.9C274.716 56.7 274.816 56.4667 275.016 56.2C275.216 55.9333 275.45 55.8 275.716 55.8H278.616L285.816 41.4C286.95 41.1333 288.15 40.8333 289.416 40.5C290.75 40.1 291.95 39.6667 293.016 39.2C291.95 41 290.483 43.3667 288.616 46.3C286.75 49.1667 284.85 52.3333 282.916 55.8H290.016C290.283 55.8 290.416 55.9333 290.416 56.2C290.416 56.4 290.316 56.6333 290.116 56.9C289.916 57.1667 289.683 57.3 289.416 57.3H282.016C279.95 60.9667 278.083 64.7667 276.416 68.7C274.816 72.6333 273.75 76.3333 273.216 79.8C273.15 80.0667 273.116 80.3667 273.116 80.7C273.116 80.9667 273.116 81.2 273.116 81.4C273.116 83.2 273.716 84.1 274.916 84.1C275.65 84.1 276.483 83.8 277.416 83.2C278.35 82.5333 279.25 81.7667 280.116 80.9C282.25 78.7667 284.083 76.4 285.616 73.8C287.216 71.2 288.683 68.5667 290.016 65.9C290.15 65.7667 290.25 65.7 290.316 65.7C290.783 65.7 291.016 65.9667 291.016 66.5C290.95 66.5 290.75 66.8 290.416 67.4C290.15 68 289.983 68.3333 289.916 68.4C288.716 70.7333 287.483 72.9667 286.216 75.1C284.95 77.2333 283.416 79.2667 281.616 81.2C280.616 82.2667 279.35 83.4 277.816 84.6C276.283 85.8 274.716 86.4 273.116 86.4ZM302.723 86.5C299.923 86.5 298.523 84.9333 298.523 81.8C298.523 79.2 299.456 75.9333 301.323 72C301.923 70.8667 302.656 69.5333 303.523 68C304.456 66.4 305.256 64.8667 305.923 63.4C306.656 61.8667 307.023 60.6667 307.023 59.8C307.023 58.8667 306.556 58.4 305.623 58.4C304.423 58.4 303.123 59.1 301.723 60.5C300.323 61.8333 298.923 63.5667 297.523 65.7C296.189 67.7667 294.923 69.9667 293.723 72.3C292.589 74.6333 291.589 76.8 290.723 78.8C289.923 80.7333 289.356 82.2333 289.023 83.3C288.756 84.3667 288.323 85.0333 287.723 85.3C287.189 85.5667 286.556 85.7 285.823 85.7C285.156 85.6333 284.456 85.7333 283.723 86C285.123 81.4 286.623 76.5333 288.223 71.4C289.823 66.2 291.556 60.9667 293.423 55.7C295.289 50.4333 297.323 45.4 299.523 40.6C301.789 35.7333 304.323 31.3667 307.123 27.5C308.856 25.1667 310.589 23.4 312.323 22.2C314.123 21 315.723 20.4 317.123 20.4C318.189 20.4 319.023 20.7667 319.623 21.5C320.289 22.1667 320.623 23.2 320.623 24.6C320.623 25.6667 320.389 27 319.923 28.6C319.456 30.1333 318.656 31.8667 317.523 33.8C316.189 36.2 314.589 38.6667 312.723 41.2C310.923 43.7333 309.023 46.1333 307.023 48.4C305.089 50.6667 303.223 52.6333 301.423 54.3C299.689 55.9 298.223 57 297.023 57.6C296.823 58.0667 296.456 59.0667 295.923 60.6C295.389 62.1333 294.823 63.8667 294.223 65.8C293.689 67.6667 293.156 69.4667 292.623 71.2C293.889 68.8 295.356 66.4333 297.023 64.1C298.756 61.7 300.523 59.7333 302.323 58.2C304.123 56.6 305.756 55.8 307.223 55.8C309.689 55.8 310.923 56.9 310.923 59.1C310.923 60.4333 310.556 62.1333 309.823 64.2C309.089 66.2667 308.156 68.6667 307.023 71.4C305.823 74.2 304.923 76.5667 304.323 78.5C303.789 80.3667 303.523 81.8333 303.523 82.9C303.523 84.1667 303.956 84.8 304.823 84.8C305.756 84.8 307.256 83.9333 309.323 82.2C311.256 80.4667 313.056 78.3 314.723 75.7C316.389 73.0333 318.389 69.4333 320.723 64.9C320.856 64.7667 320.956 64.7 321.023 64.7C321.223 64.7 321.423 64.8 321.623 65C321.889 65.2 321.956 65.3667 321.823 65.5C319.356 70.1 317.123 73.9667 315.123 77.1C313.189 80.2333 311.256 82.6 309.323 84.2C307.389 85.7333 305.189 86.5 302.723 86.5ZM297.623 55.5C299.489 54.3667 301.556 52.5667 303.823 50.1C306.156 47.5667 308.423 44.7333 310.623 41.6C312.823 38.4667 314.623 35.5 316.023 32.7C316.889 30.9667 317.489 29.4333 317.823 28.1C318.223 26.7 318.423 25.5 318.423 24.5C318.423 22.6333 317.889 21.7 316.823 21.7C316.023 21.7 314.989 22.3 313.723 23.5C312.523 24.7 311.156 26.6667 309.623 29.4C308.356 31.6667 307.056 34.1667 305.723 36.9C304.456 39.5667 303.256 42.2 302.123 44.8C300.989 47.3333 300.023 49.5667 299.223 51.5C298.423 53.4333 297.889 54.7667 297.623 55.5Z" fill="#BFAC00"/>
</svg>
