<svg width="24" height="19" viewBox="0 0 24 19" fill="none" xmlns="http://www.w3.org/2000/svg">
<path d="M9.15195 18.3C8.48529 18.3 8.08529 18.2333 7.95195 18.1L10.552 10.5H0.451953V10.3C0.451953 10.0333 0.551953 9.63333 0.751953 9.1C1.01862 8.5 1.18529 8.16667 1.25195 8.1H11.452L14.052 0.699998C14.1853 0.566664 14.5853 0.499997 15.252 0.499997C15.9853 0.499997 16.352 0.566664 16.352 0.699998L13.752 8.1H23.952V8.3C23.952 8.56667 23.852 8.96667 23.652 9.5C23.452 10.0333 23.2853 10.3667 23.152 10.5H12.952L10.252 18.1C9.98529 18.2333 9.61862 18.3 9.15195 18.3Z" fill="#BFAC00"/>
</svg>
